<svg xmlns="http://www.w3.org/2000/svg" width="355.5" height="281.42" viewBox="0 0 355.5 281.42"><defs><style>.logo{fill:#be1e2d;fill-rule:evenodd;}</style></defs><title>logo</title><path class="logo" id="logo" d="M354.55,53c-2.57-20.7-14-38.57-30.3-46.41a40.39,40.39,0,0,0-18.86-4.47,44.19,44.19,0,0,0-6.06.56,55,55,0,0,0-23.3,9.5c-9.31,6.42-18.64,15.67-28.89,29.08-10.23-13.41-19.34-22.66-28.88-29.08a57.42,57.42,0,0,0-6.32-3.82v0h0l-.06,0-.2-.11a.24.24,0,0,1-.11-.06L211.25,8a83.36,83.36,0,0,0-12.42-4.58l-.08,0c-13.45-3.82-35.17-6.7-55.68,5v0a60.13,60.13,0,0,0-6.3,3.82c-9.3,6.42-18.62,15.67-28.89,29.08C97.65,27.82,88.55,18.57,79,12.15a55,55,0,0,0-23.3-9.5,44,44,0,0,0-6.07-.56A41.15,41.15,0,0,0,30.77,6.56C14.69,14.4,3.05,32,.48,53a74.82,74.82,0,0,0,2.8,30.22c1.17,3.62,2.32,7,3.5,10.06,1.86,5,3.73,9.77,5.36,14.25l.23.56C28.44,150,45.93,192.51,63.86,234.46l.69,1.68c1.86,4.18,3.73,8.67,5.61,13.13a99.12,99.12,0,0,0,8.38,15.37c7.69,10.62,18.17,16.78,29.81,16.78,11.42,0,22.13-6.16,29.58-17.34,3.74-5,6.07-10.34,8.4-15.38,1.87-4.45,3.73-8.93,5.58-13.13l.72-1.68q12.9-29.82,25.17-59.88c8.26,20.18,16.74,40.39,25.3,60.45l.71,1.68c1.86,4.18,3.73,8.67,5.59,13.13a100,100,0,0,0,8.38,15.37c7.69,10.62,18.18,16.78,29.83,16.78,11.42,0,22.13-6.16,29.58-17.34,3.72-5,6.07-10.34,8.4-15.38,1.86-4.45,3.72-8.93,5.58-13.13l.72-1.68c18.15-41.95,35.4-84.46,51.47-126.39l.24-.28C345.23,102.76,347.08,98,349,93c1.17-3.08,2.32-6.71,3.5-10.07C355.46,72.55,356.41,62.76,354.55,53ZM247.39,68.36c12.57,19.3,20.73,37.17,23.52,52a54.11,54.11,0,0,1,.71,17.06,30.85,30.85,0,0,1-3.74,11.73,22.84,22.84,0,0,1-20.49,12.3c-8.62,0-16.07-4.74-20.52-12.3a30.84,30.84,0,0,1-3.73-11.73,53.5,53.5,0,0,1,.71-17.06C226.64,105.27,234.81,87.38,247.39,68.36Zm-139.26,0c12.56,19.3,20.73,37.17,23.52,52a54.4,54.4,0,0,1,.71,17.06,30.85,30.85,0,0,1-3.74,11.73,22.83,22.83,0,0,1-20.49,12.3c-8.62,0-16.07-4.74-20.51-12.3a30.68,30.68,0,0,1-3.74-11.73,54.09,54.09,0,0,1,.71-17.06C87.38,105.27,95.55,87.38,108.13,68.36Zm230.58,8.39c-.71,2.79-1.87,5.6-3,8.94-1.87,4.47-3.49,9.51-5.37,14V100c-16.05,41.67-33.3,84.17-51,125.82l-.68,1.67c-1.87,4.22-3.75,8.7-5.59,12.88a65.23,65.23,0,0,1-6.54,12.31c-4.9,6.71-11.42,10.35-18.64,10.35s-13.74-3.64-18.62-10.35a62.48,62.48,0,0,1-6.54-12.31c-1.87-4.18-3.73-8.66-5.59-12.88l-.71-1.67c-10.35-23.88-20.47-48.15-30.26-72.39-2.71-6.71-5.42-13.46-8.07-20.16q-4.14,10.41-8.34,20.87c-9.65,24-19.59,48-29.68,71.68l-.69,1.67c-1.86,4.22-3.72,8.7-5.6,12.88a63.5,63.5,0,0,1-6.52,12.31c-4.9,6.71-11.42,10.35-18.64,10.35S94.85,259.34,90,252.63a63,63,0,0,1-6.53-12.31c-1.87-4.18-3.73-8.66-5.59-12.88l-.69-1.67C59.19,184.4,42,141.89,25.89,100.24l-.24-.57c-1.87-4.75-3.73-9.51-5.37-14-1.15-3.34-2.33-6.15-3-8.94a54.62,54.62,0,0,1-2.09-21.81C16.8,40.4,25,27.82,36.37,22.23a31.34,31.34,0,0,1,17.7-2.8,40.92,40.92,0,0,1,17.71,7.25c8.38,5.59,17,14.28,26.55,27.12C83.19,76.47,73.64,97.44,70.16,115.89A68.79,68.79,0,0,0,69,139.67a50.8,50.8,0,0,0,6.27,19c7.23,12.29,19.35,19.85,32.87,19.85s25.61-7.26,32.83-19.85a50.66,50.66,0,0,0,6.3-19,84.22,84.22,0,0,0-1.17-23.78c-3.48-18.45-12.82-39.14-28.18-61.78,9.77-12.88,18.17-21.54,26.55-27.13.95-.66,1.9-1.3,2.84-1.84a89.79,89.79,0,0,1,15.46-5.5c11.31-2.89,26.56-4.38,40.41,2.25a43.54,43.54,0,0,1,7.33,4.44c.49.35,1,.73,1.44,1.11V27.3c8.11,5.61,16.43,14.11,25.66,26.5-15.17,22.67-24.7,43.64-28.2,62.09a69.52,69.52,0,0,0-1.16,23.78,51,51,0,0,0,6.3,19c7.21,12.29,19.33,19.85,32.85,19.85s25.63-7.26,32.84-19.85a50.81,50.81,0,0,0,6.28-19,83.46,83.46,0,0,0-1.16-23.78c-3.49-18.45-12.82-39.14-28.18-61.78,9.77-12.88,18.16-21.54,26.55-27.13a40.47,40.47,0,0,1,17.7-7.27,30,30,0,0,1,17.71,2.78c11.41,5.6,19.58,18.19,21.21,32.72A56.41,56.41,0,0,1,338.71,76.75Z"/></svg>