<svg xmlns="http://www.w3.org/2000/svg" width="3.62in" height="2.84in" viewBox="0 0 260.71 204.41">
  <title>logo</title>
  <g>
    <path d="M122.29,113.8c-7,17-14.12,34.13-21.38,51l-.5,1.19c-1.34,3-2.69,6.19-4,9.16a45,45,0,0,1-4.7,8.76c-3.54,4.78-8.23,7.37-13.44,7.37s-9.9-2.59-13.42-7.37a45,45,0,0,1-4.71-8.76c-1.34-3-2.69-6.16-4-9.16l-.5-1.19c-12.93-29.44-25.35-59.69-36.93-89.33l-.17-.4c-1.34-3.38-2.68-6.77-3.86-10-.83-2.38-1.69-4.38-2.18-6.36a38.56,38.56,0,0,1-1.51-15.52C12.1,32.9,18,24,26.2,20A22.91,22.91,0,0,1,39,18a29.65,29.65,0,0,1,12.76,5.16c6,4,12.25,10.16,19.14,19.3C59.94,58.57,53.06,73.49,50.55,86.62a48.39,48.39,0,0,0-.84,16.92,35.93,35.93,0,0,0,4.53,13.52c5.21,8.75,13.93,14.13,23.68,14.13s18.46-5.17,23.66-14.13a35.93,35.93,0,0,0,4.53-13.52,58.54,58.54,0,0,0-.84-16.92C102.76,73.49,96,58.77,85,42.66c7-9.17,13.09-15.33,19.13-19.31.69-.47,1.37-.92,2.05-1.31a28.22,28.22,0,0,1,2.64-1.41,27.23,27.23,0,0,1,8.07-2.45l.42-.05c8.16-2.06,19.14-3.12,29.12,1.6A35.45,35.45,0,0,0,133.31,8.82,27.57,27.57,0,0,0,128,6.73a31,31,0,0,0-8.23-1.09,32.41,32.41,0,0,0-4.38.4,37.86,37.86,0,0,0-12.24,4,42.22,42.22,0,0,0-4.54,2.72C91.85,17.37,85.13,24,77.74,33.49,70.36,24,63.81,17.37,56.93,12.8A40,40,0,0,0,40.13,6a31.83,31.83,0,0,0-4.36-.4,30,30,0,0,0-13.6,3.18C10.59,14.4,2.2,26.93.35,41.85a52.41,52.41,0,0,0,2,21.5c.84,2.58,1.67,5,2.52,7.16,1.34,3.57,2.68,6.95,3.86,10.14l.17.4C20.49,110.89,33.09,141.14,46,171l.51,1.2c1.34,3,2.68,6.17,4,9.34a70.42,70.42,0,0,0,6,10.94c5.54,7.56,13.09,11.94,21.48,11.94,8.23,0,16-4.38,21.33-12.34a59.25,59.25,0,0,0,6-10.94c1.35-3.17,2.69-6.36,4-9.35l.51-1.19q9.3-21.22,18.14-42.61,3-7.35,6-14.68c-2-4.78-3.9-9.58-5.82-14.35Q125.32,106.36,122.29,113.8Zm-44.37-61c9,13.73,14.93,26.45,16.94,37a37.84,37.84,0,0,1,.51,12.14,21.34,21.34,0,0,1-2.69,8.35A16.48,16.48,0,0,1,77.92,119a17.13,17.13,0,0,1-14.79-8.75,21.67,21.67,0,0,1-2.68-8.35A37.45,37.45,0,0,1,61,89.8C63,79.06,68.85,66.33,77.92,52.8Z" style="fill: #be1e2d;fill-rule: evenodd"/>
    <path d="M255.48,41.85c-1.84-14.73-10.07-27.45-21.82-33a29.48,29.48,0,0,0-13.59-3.18,32.12,32.12,0,0,0-4.37.4,39.89,39.89,0,0,0-16.79,6.76C192.2,17.37,185.48,24,178.08,33.49,170.71,24,164.15,17.37,157.27,12.8a43.22,43.22,0,0,0-4.54-2.72.12.12,0,0,0-.08,0l-.13-.08-.09,0a38.2,38.2,0,0,0-9.15-3.36l-.06,0c-.91-.21-1.83-.38-2.73-.5a32.27,32.27,0,0,0-4.38-.4,30,30,0,0,0-13.59,3.18,36.44,36.44,0,0,0-13.73,11.81,27.23,27.23,0,0,1,8.07-2.45l.42-.05c8.16-2.06,19.14-3.12,29.12,1.6.1.12.2.26.29.39a32.43,32.43,0,0,1,5,2.77,4.25,4.25,0,0,1,.39.25l.66.45c5.83,4,11.83,10,18.48,18.85-10.92,16.13-17.79,31.05-20.31,44.18a48.63,48.63,0,0,0-.84,16.92,35.76,35.76,0,0,0,4.53,13.52c5.2,8.75,13.93,14.13,23.67,14.13s18.47-5.17,23.67-14.13a35.93,35.93,0,0,0,4.53-13.52,58.86,58.86,0,0,0-.83-16.92c-2.52-13.13-9.24-27.85-20.32-44,7.05-9.17,13.09-15.33,19.14-19.31a29.38,29.38,0,0,1,12.76-5.17,21.81,21.81,0,0,1,12.75,2c8.23,4,14.11,12.94,15.28,23.28a39.67,39.67,0,0,1-1.17,15.33c-.5,2-1.34,4-2.19,6.36-1.34,3.18-2.52,6.77-3.86,10v.2c-11.58,29.65-24,59.89-36.77,89.53l-.49,1.19c-1.35,3-2.69,6.19-4,9.16a45.55,45.55,0,0,1-4.7,8.76c-3.53,4.78-8.23,7.37-13.44,7.37s-9.9-2.59-13.42-7.37a45,45,0,0,1-4.71-8.76c-1.35-3-2.68-6.16-4-9.16l-.5-1.19c-7.46-17-14.75-34.26-21.81-51.51-2-4.78-3.9-9.58-5.82-14.35q-3,7.41-6,14.85,2.89,7.08,5.83,14.18c5.95,14.36,12.06,28.74,18.24,43l.51,1.2c1.33,3,2.68,6.17,4,9.34a70.42,70.42,0,0,0,6,10.94c5.54,7.56,13.1,11.94,21.49,11.94,8.22,0,15.94-4.38,21.31-12.34a58.74,58.74,0,0,0,6-10.94c1.35-3.17,2.69-6.36,4-9.35l.51-1.19c13.08-29.85,25.51-60.1,37.09-89.94l.18-.2c1.17-3.17,2.51-6.56,3.85-10.15.84-2.19,1.68-4.77,2.52-7.16C256.15,55.78,256.82,48.81,255.48,41.85ZM195.21,89.8a37.84,37.84,0,0,1,.51,12.14,21.84,21.84,0,0,1-2.68,8.35A16.51,16.51,0,0,1,178.26,119a17.1,17.1,0,0,1-14.77-8.75,21.34,21.34,0,0,1-2.69-8.35,37.71,37.71,0,0,1,.5-12.14c2-10.74,7.9-23.47,17-37C187.32,66.53,193.2,79.25,195.21,89.8Z" style="fill: #be1e2d;fill-rule: evenodd"/>
    <path d="M152.73,10.07V23.68c-.35-.27-.7-.54-1-.79a31.78,31.78,0,0,0-5.28-3.16c-10-4.72-21-3.66-29.12-1.6A65.2,65.2,0,0,0,106.15,22c-.83.37-1.27.61-1.27.61L103.1,10.08h0c14.78-8.3,30.43-6.25,40.12-3.53l.06,0a59.34,59.34,0,0,1,9.15,3.36l.09,0,.13.08Z" style="fill: #be1e2d;fill-rule: evenodd"/>
  </g>
</svg>
